HIERARCHY
ROOT RootJoint
{
    OFFSET   0.000000   0.000000   0.000000
    CHANNELS 6 Xposition Yposition Zposition Xrotation Yrotation Zrotation
    JOINT pelvis_lowerback
    {
        OFFSET   0.000000   0.093605   0.000000
        CHANNELS 3 Xrotation Yrotation Zrotation
        JOINT lowerback_torso
        {
            OFFSET   0.000000   0.100000   0.000000
            CHANNELS 3 Xrotation Yrotation Zrotation
            JOINT torso_head
            {
                OFFSET   0.000000   0.282350   0.000000
                CHANNELS 3 Xrotation Yrotation Zrotation
                End Site
                {
                    OFFSET   0.000000   0.192650   0.000000
                }
            }
            JOINT rTorso_Clavicle
            {
                OFFSET  -0.001000   0.157500   0.000000
                CHANNELS 3 Xrotation Yrotation Zrotation
                JOINT rShoulder
                {
                    OFFSET  -0.117647   0.000000   0.000000
                    CHANNELS 3 Xrotation Yrotation Zrotation
                    JOINT rElbow
                    {
                        OFFSET  -0.245000   0.000000   0.000000
                        CHANNELS 3 Xrotation Yrotation Zrotation
                        JOINT rWrist
                        {
                            OFFSET  -0.240000   0.000000   0.000000
                            CHANNELS 3 Xrotation Yrotation Zrotation
                            End Site
                            {
                                OFFSET  -0.116353  -0.002500   0.000000
                            }
                        }
                    }
                }
            }
            JOINT lTorso_Clavicle
            {
                OFFSET   0.001000   0.157500   0.000000
                CHANNELS 3 Xrotation Yrotation Zrotation
                JOINT lShoulder
                {
                    OFFSET   0.117647   0.000000   0.000000
                    CHANNELS 3 Xrotation Yrotation Zrotation
                    JOINT lElbow
                    {
                        OFFSET   0.245000   0.000000   0.000000
                        CHANNELS 3 Xrotation Yrotation Zrotation
                        JOINT lWrist
                        {
                            OFFSET   0.240000   0.000000   0.000000
                            CHANNELS 3 Xrotation Yrotation Zrotation
                            End Site
                            {
                                OFFSET   0.116353  -0.002500   0.000000
                            }
                        }
                    }
                }
            }
        }
    }
    JOINT rHip
    {
        OFFSET  -0.100000  -0.051395   0.000000
        CHANNELS 3 Xrotation Yrotation Zrotation
        JOINT rKnee
        {
            OFFSET   0.000000  -0.410000   0.000000
            CHANNELS 3 Xrotation Yrotation Zrotation
            JOINT rAnkle
            {
                OFFSET   0.000000  -0.390000   0.000000
                CHANNELS 3 Xrotation Yrotation Zrotation
                JOINT rToeJoint
                {
                    OFFSET   0.000000  -0.050000   0.130000
                    CHANNELS 3 Xrotation Yrotation Zrotation
                    End Site
                    {
                        OFFSET  -0.010000   0.002000   0.060000
                    }
                }
            }
        }
    }
    JOINT lHip
    {
        OFFSET   0.100000  -0.051395   0.000000
        CHANNELS 3 Xrotation Yrotation Zrotation
        JOINT lKnee
        {
            OFFSET   0.000000  -0.410000   0.000000
            CHANNELS 3 Xrotation Yrotation Zrotation
            JOINT lAnkle
            {
                OFFSET   0.000000  -0.390000   0.000000
                CHANNELS 3 Xrotation Yrotation Zrotation
                JOINT lToeJoint
                {
                    OFFSET   0.000000  -0.050000   0.130000
                    CHANNELS 3 Xrotation Yrotation Zrotation
                    End Site
                    {
                        OFFSET   0.010000   0.002000   0.060000
                    }
                }
            }
        }
    }
}
MOTION
Frames: 11
Frame Time:   0.008333
 -2.356125   0.918259   4.037261  -4.166019   1.628620  -0.884613   5.816149   0.065341  -0.702676   5.204476  -1.443465   0.243493  -1.245339  -0.497656   0.305227   4.083311   0.381867  10.705402   9.313269   9.286907  44.813817   0.000014  17.261417  -0.000007   9.365877   3.412881  -0.476434   5.279708   0.399943 -11.085672   8.760183  -6.313908 -44.747821  -0.000001 -20.376844  -0.000000   8.340971  -3.840077   4.160829   7.318055  -4.256703  -3.345879   5.266162   0.000012   0.000008  -4.957558  -2.913581   4.745891  -4.841893   0.000000   0.000000  11.032962   0.096063   2.509851  -0.000000   0.000000  -0.000000  -6.603849   3.279119   0.447081  -0.390209  -0.000000   0.000000
 -2.356036   0.918268   4.037187  -4.174378   1.641041  -0.880776   5.837869   0.058302  -0.698146   5.199502  -1.446837   0.247842  -1.237954  -0.500324   0.308253   4.076479   0.394146  10.704251   9.292738   9.278327  44.835205   0.000018  17.295422  -0.000003   9.335556   3.402565  -0.479896   5.268667   0.380410 -11.077085   8.715318  -6.311923 -44.757536  -0.000002 -20.383524  -0.000002   8.304657  -3.825338   4.176412   7.303957  -4.265936  -3.356087   5.303560   0.000011   0.000007  -4.962844  -2.914878   4.752955  -4.856080   0.000000   0.000000  11.035222   0.084957   2.501427  -0.000000   0.000000  -0.000000  -6.599136   3.276424   0.459810  -0.388839  -0.000000   0.000000
 -2.355953   0.918276   4.037103  -4.182821   1.653072  -0.876692   5.859640   0.050785  -0.694295   5.195237  -1.450855   0.251836  -1.230033  -0.502857   0.310901   4.068415   0.406994  10.704824   9.271971   9.271895  44.856365   0.000021  17.328405  -0.000001   9.306074   3.398908  -0.484909   5.255617   0.359959 -11.069186   8.671154  -6.312024 -44.766518  -0.000003 -20.390982  -0.000003   8.269407  -3.814673   4.195396   7.289753  -4.274812  -3.366153   5.340144   0.000011   0.000006  -4.968017  -2.916230   4.759517  -4.868969   0.000000   0.000000  11.036983   0.074256   2.493108  -0.000000   0.000000  -0.000000  -6.593767   3.273684   0.471821  -0.387539  -0.000000   0.000000
 -2.355875   0.918285   4.037016  -4.191017   1.664003  -0.872662   5.880418   0.043199  -0.690801   5.191119  -1.455212   0.255671  -1.222310  -0.505220   0.313281   4.060031   0.419927  10.706401   9.251802   9.266774  44.876816   0.000024  17.359666   0.000001   9.277844   3.398762  -0.489345   5.241952   0.339372 -11.062083   8.628742  -6.313306 -44.774939  -0.000004 -20.398590  -0.000003   8.235862  -3.807925   4.214765   7.276037  -4.282923  -3.375857   5.374489   0.000011   0.000005  -4.972585  -2.917362   4.765622  -4.880567   0.000000   0.000000  11.038344   0.064378   2.485032  -0.000000   0.000000  -0.000000  -6.588163   3.271243   0.483100  -0.386324  -0.000000   0.000000
 -2.355803   0.918293   4.036928  -4.198980   1.673712  -0.868734   5.899902   0.035640  -0.687544   5.186998  -1.459757   0.259372  -1.214993  -0.507429   0.315468   4.051763   0.432522  10.708540   9.232562   9.262480  44.896358   0.000025  17.389089   0.000003   9.250811   3.400369  -0.493023   5.228312   0.319207 -11.055697   8.588439  -6.315245 -44.782894  -0.000005 -20.406087  -0.000004   8.203896  -3.803811   4.233640   7.263011  -4.290239  -3.385177   5.406518   0.000010   0.000004  -4.976640  -2.918188   4.771302  -4.890901   0.000000   0.000000  11.039511   0.055369   2.477213  -0.000000   0.000000  -0.000000  -6.582513   3.269191   0.493672  -0.385194  -0.000000   0.000000
 -2.355735   0.918301   4.036840  -4.206781   1.682268  -0.864924   5.918030   0.028157  -0.684462   5.182883  -1.464409   0.262935  -1.208139  -0.509497   0.317501   4.043843   0.444540  10.710961   9.214404   9.258723  44.914889   0.000026  17.416671   0.000004   9.224914   3.402803  -0.496090   5.215029   0.299765 -11.049932   8.550372  -6.317533 -44.790411  -0.000005 -20.413337  -0.000004   8.173380  -3.801392   4.251786   7.250752  -4.296815  -3.394103   5.436395   0.000009   0.000004  -4.980290  -2.918716   4.776574  -4.900067   0.000000   0.000000  11.040628   0.047184   2.469669  -0.000000   0.000000  -0.000000  -6.576898   3.267511   0.503574  -0.384142  -0.000000   0.000000
 -2.355672   0.918309   4.036752  -4.214476   1.689788  -0.861231   5.934838   0.020789  -0.681524   5.178819  -1.469115   0.266355  -1.201754  -0.511435   0.319403   4.036390   0.455860  10.713484   9.197385   9.255322  44.932368   0.000025  17.442459   0.000006   9.200097   3.405535  -0.498696   5.202282   0.281201 -11.044695   8.514555  -6.319981 -44.797503  -0.000005 -20.420266  -0.000004   8.144215  -3.800063   4.269151   7.239272  -4.302722  -3.402621   5.464308   0.000009   0.000003  -4.983604  -2.918982   4.781445  -4.908169   0.000000   0.000000  11.041771   0.039751   2.462422  -0.000000   0.000000  -0.000000  -6.571344   3.266162   0.512848  -0.383157  -0.000000   0.000000
 -2.355606   0.918320   4.036629  -4.217967   1.696161  -0.856473   5.948508   0.013636  -0.678688   5.178207  -1.470582   0.269576  -1.198107  -0.510122   0.324196   4.031481   0.472920  10.716070   9.169469   9.249303  44.946573   0.000025  17.470761   0.000006   9.171350   3.398374  -0.498023   5.187087   0.261505 -11.041076   8.461702  -6.322607 -44.803764  -0.000005 -20.424777  -0.000004   8.109188  -3.789049   4.276382   7.211682  -4.303421  -3.413388   5.510599   0.000009   0.000004  -4.991883  -2.922698   4.786456  -4.918458   0.000000   0.000000  11.036097   0.032178   2.453127  -0.000000   0.000000  -0.000000  -6.563787   3.265621   0.525985  -0.381433  -0.000000   0.000000
 -2.355539   0.918332   4.036493  -4.222167   1.703624  -0.851587   5.962874   0.006551  -0.675217   5.177755  -1.472059   0.273053  -1.194084  -0.508713   0.329038   4.024694   0.491107  10.717824   9.141727   9.245177  44.959007   0.000024  17.497947   0.000006   9.143665   3.393355  -0.499380   5.169804   0.240299 -11.037713   8.409873  -6.327260 -44.809194  -0.000005 -20.430091  -0.000004   8.075291  -3.781088   4.285046   7.184103  -4.304569  -3.424150   5.556798   0.000009   0.000005  -4.998998  -2.926969   4.791456  -4.929246   0.000000   0.000000  11.030073   0.024229   2.443924  -0.000000   0.000000  -0.000000  -6.555091   3.264331   0.538558  -0.379825  -0.000000   0.000000
 -2.355474   0.918344   4.036351  -4.226864   1.711126  -0.846632   5.976669  -0.000087  -0.671484   5.176990  -1.473519   0.276641  -1.190008  -0.507365   0.333682   4.017054   0.509377  10.719111   9.114844   9.242245  44.970196   0.000022  17.523814   0.000006   9.117201   3.390874  -0.502093   5.152131   0.218983 -11.034410   8.360284  -6.332769 -44.814014  -0.000005 -20.435705  -0.000004   8.043048  -3.776777   4.294615   7.157844  -4.305828  -3.434791   5.600531   0.000009   0.000006  -5.004942  -2.931244   4.796323  -4.939318   0.000000   0.000000  11.024099   0.016478   2.434796  -0.000000   0.000000  -0.000000  -6.545840   3.262798   0.550417  -0.378353  -0.000000   0.000000
 -2.355410   0.918357   4.036205  -4.232051   1.718256  -0.841642   5.989470  -0.006232  -0.667676   5.175802  -1.474864   0.280250  -1.186097  -0.506094   0.338080   4.009126   0.527223  10.720138   9.089143   9.240080  44.980412   0.000021  17.548269   0.000006   9.091880   3.390174  -0.505579   5.134824   0.198268 -11.031151   8.313361  -6.338523 -44.818323  -0.000006 -20.441303  -0.000004   8.012316  -3.774771   4.304594   7.133173  -4.307031  -3.445260   5.641559   0.000009   0.000006  -5.009975  -2.935316   4.800993  -4.948368   0.000000   0.000000  11.018431   0.009120   2.425763  -0.000000   0.000000  -0.000000  -6.536305   3.261253   0.561563  -0.377004  -0.000000   0.000000
